<?xml version="1.0" encoding="UTF-8"?>
<svg id="Layer_1" data-name="Layer 1" xmlns="http://www.w3.org/2000/svg" viewBox="0 0 1024 1024">
  <defs>
    <style>
      .cls-1 {
        fill: #fff;
      }

      .cls-2 {
        fill: #859198;
      }
    </style>
  </defs>
  <rect class="cls-2" width="1024" height="1024"/>
  <path class="cls-1" d="M512,196c-174.53,0-316,141.47-316,316s141.47,316,316,316,316-141.47,316-316-141.47-316-316-316ZM588.73,610.86c1.51.98,2.89,1.46,4.13,1.46,4.14,0,9.45-3.58,15.87-10.76,6.44-7.17,12.15-14.9,17.15-23.16l9.31,6c-12.44,19.02-22.53,32.26-30.25,39.72-12.85,12.4-26.51,18.62-41,18.62-7.89,0-14.68-2.65-20.41-7.97-5.74-5.31-8.6-12.32-8.6-20.98,0-3.59.9-9.25,2.69-16.99.84-3.73,2.23-9.18,4.14-16.36l50-182.63c1.23-4.69,2.13-8.48,2.69-11.37.57-2.91.83-5.39.83-7.46,0-6.21-2.09-10.01-6.22-11.38-2.55-.86-6.2-1.35-10.73-1.57.97,3.26,1.63,6.74,1.63,10.66,0,6.77-2.11,12.18-6.33,16.24-4.19,4.08-9.2,6.1-15,6.1s-10.54-1.99-14.68-5.97c-4.13-3.99-6.19-8.65-6.19-14,0-3.71,1.13-7.52,3.4-11.43,2.29-3.92,3.42-6.21,3.42-6.89,0-.97-.49-2.19-1.44-3.71-1.1-1.37-3.04-2.06-5.79-2.06-7.72,0-14.71,5.37-20.97,16.11-6.26,10.73-12.1,26.42-17.46,47.06l-7.85,29.93h39.19l-3.93,17.38h-38.26c-20.25,99.02-36.92,163.98-50.01,194.87-18.48,43.45-44.29,65.15-77.38,65.15-12.97,0-23.21-3.29-30.72-9.92-7.53-6.63-11.28-14.62-11.28-24,0-6.76,2.24-12.19,6.72-16.33,4.48-4.15,9.56-6.22,15.21-6.22s10.44,1.92,14.78,5.72c4.34,3.78,6.53,8.91,6.53,15.39,0,3.44-1.15,6.87-3.43,10.26-2.27,3.37-3.4,5.66-3.4,6.91,0,1.51.71,2.68,2.16,3.51,1.44.85,3.21,1.24,5.28,1.24,10.61,0,18.68-8.44,24.2-25.32,5.52-16.76,17-66.01,34.44-147.74l17.43-73.52h-31.18l3.96-17.38h31.29c2.48-10.49,7.74-24.72,15.81-42.73,8.07-18,18.36-32.51,30.9-43.54,15.17-13.1,30.75-19.66,46.73-19.66,12.83,0,23.34,2.9,31.55,8.69,1.54,1.08,2.77,2.37,4.01,3.64,19.3-1.92,32.65-3.38,39.66-4.36,7.4-1.03,22.65-3.7,45.73-7.97l-61.28,221.53c-3.04,11.17-4.9,18.28-5.58,21.31-2.49,10.1-3.73,16.78-3.73,20.12,0,2.88.75,4.82,2.28,5.77Z"/>
</svg>