<?xml version="1.0" encoding="UTF-8"?>
<svg id="Layer_2" data-name="Layer 2" xmlns="http://www.w3.org/2000/svg" xmlns:xlink="http://www.w3.org/1999/xlink" viewBox="0 0 590 590.47">
  <defs>
    <style>
      .cls-1 {
        fill: url(#linear-gradient);
      }

      .cls-2 {
        fill: #fff;
      }

      .cls-3 {
        fill: #2e3192;
      }
    </style>
    <linearGradient id="linear-gradient" x1="295" y1="515.24" x2="295" y2="75.24" gradientUnits="userSpaceOnUse">
      <stop offset=".21" stop-color="#2e3192"/>
      <stop offset="1" stop-color="#29abe2"/>
    </linearGradient>
  </defs>
  <g id="Layer_1-2" data-name="Layer 1">
    <g>
      <circle class="cls-1" cx="295" cy="295.24" r="220"/>
      <path class="cls-2" d="M476.46,274.88c-.94-9.83-2.75-19.14-5.4-27.66-1.13-3.64-2.38-7.25-3.73-10.81-1.82-5.1-3.84-10.11-6.08-14.99l-.26.25c-13.16-27.26-33.01-51.21-58.28-68.31-29.41-19.9-74.53-7.37-93.92,26.92-20.57,36.38-15.33,74.76,18.23,93.43,13.59,7.56,53,16.88,57.2-12.16,4.9-33.9-28.89-18.95-39.37-26.21-8.46-5.86-7.7-17.24-3.25-23.1,3.15-4.15,46.48-22.41,64.07,12.73,17.2,34.37,7.65,128.62-103.81,128.62-71.26,0-134.56-38.44-170.66-97.83-3.5-5.76-9.04-2.4-12.52,3.38-7.44,12.35-9.62,35.16-5.27,61.53,11.28,90.22,88.25,160.03,181.53,160.03,101.05,0,182.96-81.91,182.96-182.96,0-7.74-.5-15.37-1.43-22.86Z"/>
    </g>
    <g>
      <path class="cls-3" d="M85.68,438.47l-41.09,13.93-5.23-9.69,16-18.37-24.11,3.35-5.23-9.69,34.19-26.71,5.26,9.74-19.92,14.94,26.47-2.81,2.1,3.89-17.11,20.13,23.42-8.45,5.26,9.74Z"/>
      <path class="cls-3" d="M43.75,361.29l4.5,15.24,7.85.34,3.36,11.37-45.64-3.51-3.44-11.64,36.42-27.73,3.36,11.37-6.41,4.55ZM36.48,366.52l-12.24,8.82,15.07.76-2.83-9.58Z"/>
      <path class="cls-3" d="M42.2,304.71l1.6,13.75-15.12,12.44,16.34-1.9,1.28,11.05-42.49,4.94-2-17.19c-.28-2.37-.17-4.47.32-6.32.49-1.85,1.27-3.41,2.34-4.7,1.07-1.29,2.36-2.31,3.87-3.08,1.51-.77,3.17-1.25,4.97-1.46,3.23-.37,5.94.1,8.13,1.43,2.19,1.33,3.82,3.47,4.89,6.43l15.86-15.38ZM21.52,331.73l-.24-2.09c-.25-2.18-.9-3.8-1.94-4.86-1.04-1.06-2.4-1.49-4.09-1.29-1.69.2-2.92.93-3.69,2.2-.77,1.27-1.02,2.99-.77,5.17l.24,2.09,10.48-1.22Z"/>
      <path class="cls-3" d="M.07,287.76l42.78.28-.07,11.12-42.78-.28.07-11.12Z"/>
      <path class="cls-3" d="M42.47,278.36L.18,271.95l1.67-10.99,28.94-16.38-25.86-3.92,1.66-10.94,42.3,6.41-1.66,10.94-28.94,16.38,25.86,3.92-1.67,10.99Z"/>
      <path class="cls-3" d="M27.79,193.59l-4.14,12.56,6.79,2.24,3.91-11.85,8.94,2.95-3.91,11.85,7.01,2.31,4.14-12.56,8.94,2.95-7.62,23.12-40.63-13.39,7.62-23.12,8.94,2.95Z"/>
      <path class="cls-3" d="M63,136.32c-4.02.58-7,2.49-8.96,5.73-.86,1.43-1.4,2.9-1.61,4.43-.21,1.53-.14,3,.22,4.41.36,1.41,1.01,2.74,1.94,3.98.93,1.25,2.1,2.3,3.53,3.16,1.46.88,2.95,1.44,4.49,1.68,1.53.24,3.02.19,4.47-.15,1.44-.34,2.79-.96,4.03-1.84,1.24-.89,2.28-2.03,3.12-3.42,1.84-3.04,2.19-6.56,1.07-10.55l11.27,6.8-.25,1.18c-.36,1.77-.8,3.36-1.32,4.77-.52,1.41-1.15,2.73-1.89,3.96-1.52,2.53-3.46,4.66-5.81,6.4-2.35,1.74-4.93,2.97-7.72,3.69-2.8.72-5.71.9-8.73.53s-5.95-1.4-8.77-3.1c-2.82-1.7-5.08-3.78-6.8-6.25-1.71-2.47-2.89-5.1-3.52-7.89-.64-2.79-.73-5.64-.28-8.55.45-2.91,1.45-5.64,2.99-8.2.88-1.46,1.9-2.8,3.05-4.02,1.16-1.22,2.53-2.42,4.11-3.58l11.37,6.86Z"/>
      <path class="cls-3" d="M74.45,131.55c-2.38-2.11-4.2-4.51-5.47-7.21-1.27-2.7-1.98-5.5-2.13-8.41-.15-2.91.31-5.83,1.37-8.76,1.06-2.93,2.74-5.7,5.05-8.3,2.29-2.57,4.83-4.57,7.62-5.98,2.8-1.41,5.65-2.23,8.58-2.44,2.92-.21,5.8.15,8.62,1.09,2.83.94,5.43,2.47,7.81,4.58,2.38,2.11,4.2,4.51,5.47,7.21,1.27,2.7,1.98,5.51,2.11,8.44.13,2.93-.33,5.86-1.41,8.81s-2.75,5.7-5.03,8.28c-2.31,2.6-4.86,4.6-7.64,6-2.78,1.4-5.63,2.2-8.54,2.4-2.91.2-5.78-.17-8.61-1.12-2.83-.94-5.43-2.47-7.81-4.58ZM82.17,122.85c1.27,1.13,2.66,1.93,4.16,2.4,1.5.47,3.01.65,4.53.53,1.52-.12,2.98-.53,4.39-1.23,1.41-.7,2.65-1.66,3.73-2.87,1.08-1.22,1.88-2.56,2.41-4.04.53-1.48.77-2.99.72-4.52-.05-1.54-.4-3.02-1.05-4.46-.65-1.43-1.61-2.72-2.88-3.85-1.27-1.13-2.66-1.93-4.16-2.4-1.5-.47-3.02-.64-4.55-.51-1.53.13-3,.55-4.41,1.25-1.4.7-2.65,1.66-3.73,2.87-1.08,1.22-1.88,2.56-2.41,4.04-.53,1.48-.76,2.98-.7,4.5.06,1.52.42,3,1.07,4.44.65,1.44,1.61,2.72,2.88,3.85Z"/>
      <path class="cls-3" d="M127.36,105.63l-25.57-34.3,8.91-6.65,32.1,8.69-15.63-20.97,8.87-6.61,25.57,34.3-8.87,6.61-32.1-8.69,15.63,20.97-8.91,6.65Z"/>
      <path class="cls-3" d="M176.67,36.78c-1.52-.34-2.93-.45-4.22-.33-1.29.12-2.45.43-3.46.94-1.29.64-2.18,1.47-2.69,2.49-.51,1.02-.52,2.01-.03,2.99.34.68.82,1.13,1.45,1.37.63.24,1.35.35,2.17.34.82,0,1.7-.1,2.65-.28.95-.18,1.9-.33,2.84-.47,3.79-.54,6.89-.28,9.3.77,2.41,1.06,4.34,3.04,5.8,5.95.98,1.96,1.54,3.9,1.67,5.82.14,1.92-.15,3.76-.85,5.53-.7,1.77-1.82,3.43-3.35,4.97-1.53,1.55-3.46,2.91-5.8,4.07-4.84,2.42-10.04,3.22-15.6,2.41l.25-10.15c2.15.58,4.11.82,5.89.74,1.78-.08,3.38-.48,4.8-1.19,1.62-.81,2.65-1.79,3.07-2.93.42-1.14.4-2.19-.08-3.13-.29-.57-.64-1.02-1.05-1.35-.41-.32-.95-.54-1.6-.66-.65-.12-1.43-.14-2.35-.06s-2,.2-3.27.37c-1.49.24-2.97.42-4.45.55-1.48.13-2.91.03-4.28-.3-1.37-.33-2.66-.96-3.87-1.9-1.21-.94-2.29-2.35-3.24-4.25-.95-1.89-1.49-3.77-1.64-5.62-.14-1.85.08-3.61.66-5.28.58-1.67,1.54-3.21,2.88-4.64,1.34-1.43,3.02-2.65,5.05-3.67,1.89-.95,4-1.67,6.33-2.18,2.33-.51,4.69-.73,7.09-.66l-.08,9.74Z"/>
      <path class="cls-3" d="M216.12,20.45l-12.54,4.2,2.27,6.78,11.84-3.96,2.99,8.93-11.84,3.96,2.34,6.99,12.53-4.2,2.99,8.93-23.08,7.73-13.59-40.56,23.08-7.73,2.99,8.93Z"/>
      <path class="cls-3" d="M270.04,43.49l-13.63,2.43-13.34-14.33,2.89,16.2-10.95,1.96-7.52-42.11,17.04-3.04c2.35-.42,4.45-.44,6.33-.06,1.87.38,3.48,1.06,4.83,2.05,1.35.99,2.45,2.21,3.31,3.67.86,1.46,1.44,3.09,1.76,4.87.57,3.2.26,5.94-.93,8.21-1.19,2.27-3.23,4.03-6.12,5.27l16.32,14.89ZM241.8,24.5l2.07-.37c2.16-.39,3.74-1.13,4.73-2.23.99-1.1,1.34-2.49,1.04-4.16s-1.11-2.86-2.42-3.54c-1.31-.69-3.05-.84-5.21-.45l-2.07.37,1.86,10.39Z"/>
      <path class="cls-3" d="M280.58.44l10.68,25.9L301.29.16l12.08-.16-17.47,43.02-8.85.12L268.5.6l12.08-.16Z"/>
      <path class="cls-3" d="M342.52,39.87l-15.7-2.42-3.65,6.96-11.72-1.81,22.61-39.8,12,1.85,9.58,44.76-11.72-1.81-1.39-7.73ZM340.89,31.07l-2.77-14.84-7.1,13.31,9.87,1.52Z"/>
      <path class="cls-3" d="M384.33,23.93l-9.79,31.89-10.63-3.26,9.79-31.89-8.73-2.68,2.76-9,28.1,8.63-2.76,9-8.73-2.68Z"/>
      <path class="cls-3" d="M415.69,25.98l-16.74,39.37-10.23-4.35,16.74-39.37,10.23,4.35Z"/>
      <path class="cls-3" d="M417.52,49.42c1.66-2.71,3.7-4.93,6.14-6.65,2.43-1.73,5.07-2.92,7.91-3.57,2.84-.66,5.8-.72,8.87-.19,3.07.53,6.09,1.7,9.06,3.52,2.94,1.8,5.34,3.95,7.23,6.45,1.88,2.5,3.18,5.18,3.91,8.01.72,2.84.87,5.73.44,8.68-.43,2.95-1.48,5.78-3.14,8.49-1.66,2.71-3.7,4.93-6.14,6.65-2.43,1.73-5.08,2.91-7.93,3.56-2.86.65-5.83.7-8.91.16-3.09-.54-6.1-1.7-9.03-3.5-2.97-1.82-5.38-3.97-7.25-6.47-1.87-2.49-3.15-5.16-3.86-7.98-.71-2.83-.85-5.72-.41-8.67.43-2.95,1.48-5.78,3.14-8.49ZM427.44,55.49c-.89,1.45-1.43,2.96-1.64,4.52-.2,1.56-.11,3.08.27,4.56.38,1.48,1.04,2.84,1.98,4.1.93,1.26,2.1,2.32,3.48,3.16,1.39.85,2.85,1.4,4.4,1.66,1.55.26,3.07.23,4.58-.09,1.5-.32,2.91-.93,4.21-1.82,1.3-.89,2.39-2.06,3.28-3.51.89-1.45,1.43-2.96,1.64-4.52.2-1.56.1-3.09-.3-4.57-.4-1.49-1.07-2.86-2-4.12-.94-1.26-2.1-2.32-3.48-3.16-1.39-.85-2.86-1.4-4.4-1.66-1.55-.26-3.07-.22-4.56.11-1.49.33-2.88.94-4.18,1.83-1.3.89-2.39,2.06-3.28,3.51Z"/>
      <path class="cls-3" d="M452.31,96.97l29.36-31.12,8.09,7.63-3.01,33.12,17.95-19.02,8.05,7.59-29.36,31.12-8.05-7.59,3.01-33.12-17.95,19.02-8.09-7.63Z"/>
      <path class="cls-3" d="M501.92,149.5l36.91-21.62,5.62,9.6-12.19,30.94,22.57-13.22,5.59,9.55-36.91,21.62-5.59-9.55,12.19-30.94-22.57,13.22-5.62-9.59Z"/>
      <path class="cls-3" d="M547.2,186.52c3.02-1,6.01-1.37,8.98-1.12,2.97.25,5.75,1.04,8.35,2.37,2.59,1.33,4.89,3.19,6.9,5.57,2,2.38,3.56,5.23,4.65,8.53,1.08,3.27,1.53,6.46,1.36,9.59-.18,3.13-.91,6.01-2.19,8.64-1.28,2.63-3.04,4.94-5.27,6.92-2.24,1.97-4.86,3.46-7.88,4.46-3.02,1-6.01,1.37-8.98,1.12-2.97-.25-5.76-1.05-8.36-2.4-2.6-1.35-4.9-3.23-6.92-5.63-2.01-2.4-3.56-5.24-4.64-8.5-1.09-3.3-1.55-6.51-1.36-9.62.18-3.11.92-5.97,2.2-8.59,1.28-2.62,3.04-4.91,5.28-6.89,2.23-1.98,4.86-3.46,7.88-4.46ZM550.86,197.56c-1.62.54-3.01,1.33-4.17,2.4-1.16,1.06-2.07,2.28-2.73,3.66-.66,1.37-1.04,2.84-1.14,4.41-.1,1.57.11,3.12.62,4.67.51,1.54,1.27,2.91,2.29,4.11,1.01,1.2,2.2,2.16,3.56,2.89,1.36.73,2.82,1.17,4.38,1.33,1.57.16,3.16-.03,4.77-.57,1.62-.53,3-1.33,4.17-2.4,1.16-1.06,2.07-2.29,2.72-3.68.65-1.39,1.03-2.87,1.13-4.44.1-1.57-.11-3.12-.62-4.67-.51-1.54-1.28-2.92-2.29-4.11-1.02-1.2-2.2-2.15-3.55-2.86-1.35-.71-2.81-1.14-4.38-1.3-1.57-.16-3.16.03-4.77.57Z"/>
      <path class="cls-3" d="M547.52,280.79l-1.87-13.72,14.87-12.73-16.3,2.22-1.5-11.02,42.39-5.76,2.33,17.15c.32,2.36.25,4.47-.2,6.33-.45,1.86-1.2,3.44-2.25,4.74-1.04,1.31-2.31,2.36-3.81,3.15-1.5.8-3.14,1.31-4.94,1.56-3.22.44-5.94.01-8.16-1.27-2.22-1.28-3.89-3.39-5.01-6.33l-15.56,15.69ZM567.67,253.37l.28,2.08c.3,2.17.97,3.78,2.03,4.82,1.06,1.04,2.43,1.45,4.12,1.22,1.69-.23,2.9-.99,3.64-2.27.74-1.28.96-3.01.67-5.19l-.28-2.08-10.46,1.42Z"/>
      <path class="cls-3" d="M580.38,310.93l.11-13.39-7.15-.06-.1,12.2-9.42-.08.1-12.2-16.79-.14.09-11.12,42.78.35-.2,24.51-9.42-.08Z"/>
      <path class="cls-3" d="M568.47,319.56c3.13.55,5.94,1.64,8.44,3.27,2.5,1.63,4.57,3.65,6.22,6.05,1.65,2.4,2.79,5.13,3.43,8.18.63,3.05.65,6.29.04,9.72-.6,3.39-1.72,6.42-3.36,9.09-1.64,2.67-3.65,4.86-6.03,6.57s-5.02,2.91-7.92,3.59c-2.9.68-5.92.74-9.05.19-3.13-.55-5.94-1.64-8.44-3.27-2.5-1.63-4.57-3.66-6.22-6.08s-2.79-5.17-3.42-8.24c-.63-3.07-.65-6.3-.05-9.69.6-3.43,1.73-6.47,3.36-9.11,1.64-2.65,3.64-4.82,6.02-6.52s5.01-2.88,7.92-3.56c2.9-.68,5.92-.74,9.05-.19ZM566.45,331.01c-1.68-.3-3.28-.25-4.81.13-1.53.38-2.91,1.02-4.14,1.92s-2.26,2.01-3.1,3.34c-.83,1.33-1.39,2.8-1.67,4.4s-.26,3.17.06,4.71c.32,1.54.91,2.94,1.76,4.23.85,1.28,1.93,2.36,3.23,3.25s2.79,1.47,4.47,1.77,3.28.25,4.81-.13c1.53-.38,2.91-1.03,4.15-1.95,1.24-.92,2.27-2.04,3.1-3.37.83-1.33,1.39-2.8,1.67-4.4.28-1.6.26-3.17-.06-4.71-.33-1.54-.91-2.94-1.77-4.2s-1.93-2.34-3.24-3.22c-1.3-.88-2.79-1.47-4.47-1.77Z"/>
      <path class="cls-3" d="M572.86,394.22l-31.45-11.12-4.44,12.57-8.88-3.14,8.15-23.06,40.33,14.26-3.71,10.48Z"/>
      <path class="cls-3" d="M542.73,420.11l9.15,20.29-6.48,12.1-9.85-24.52-28.61,5.72,6.8-12.7,23.19-3.99-16.35-8.76,5.25-9.8,37.71,20.2-5.25,9.8-15.55-8.33Z"/>
      <path class="cls-3" d="M481.39,480.34l12.45-13.43-4.38-10.56,4.73-5.1,18.94,46.43-47.22-15.94,4.8-5.18,10.67,3.77ZM487.63,482.53l14.98,5.24-6.14-14.77-8.83,9.53Z"/>
      <path class="cls-3" d="M463.01,535.43l-4.74-6c4.86.13,8.86-1.03,11.99-3.51,3.45-2.73,5.37-6.26,5.78-10.61.43-4.34-.76-8.29-3.58-11.86-2.78-3.52-6.32-5.55-10.61-6.09-4.29-.54-8.16.55-11.61,3.28-1.78,1.41-3.07,2.89-3.86,4.46-.47.84-.88,1.8-1.23,2.88s-.67,2.3-.95,3.65l-4.83-6.11c1.6-3.93,4-7.15,7.19-9.67,4.8-3.79,10.21-5.35,16.25-4.69,6.04.71,10.95,3.44,14.72,8.21,3.38,4.27,4.98,9.2,4.8,14.78-.24,6.85-3.11,12.46-8.63,16.82-3.01,2.38-6.57,3.87-10.68,4.45Z"/>
      <path class="cls-3" d="M438.75,545.85l-18.65-31.62,5.56-3.28,18.65,31.62,8.47-5,3.08,5.23-22.48,13.26-3.08-5.23,8.45-4.98Z"/>
      <path class="cls-3" d="M417.74,563.49l-18.23-38.7,5.84-2.75,18.23,38.7-5.84,2.75Z"/>
      <path class="cls-3" d="M398.18,549.82c1.8,5.75,1.23,11.34-1.69,16.78-2.91,5.44-7.3,9.08-13.19,10.92-5.82,1.82-11.46,1.3-16.92-1.56-5.48-2.85-9.13-7.2-10.95-13.03-1.84-5.87-1.29-11.51,1.62-16.91,2.93-5.42,7.37-9.07,13.33-10.93,5.27-1.65,10.57-1.3,15.91,1.03,5.88,2.59,9.84,7.16,11.89,13.7ZM391.94,551.69c-1.41-4.51-4.09-7.75-8.03-9.71-3.92-1.97-7.86-2.33-11.81-1.1-4.28,1.34-7.43,3.95-9.45,7.83-2.01,3.92-2.34,8.03-.99,12.33,1.36,4.35,3.96,7.55,7.79,9.58,3.82,2.06,7.86,2.42,12.12,1.09,4.25-1.33,7.37-3.93,9.37-7.81,2.01-3.84,2.34-7.91,1-12.21Z"/>
      <path class="cls-3" d="M340.83,543.92l4.88,45.42-34.5-29.12,3.18,29.56-6.42.69-4.85-45.12,34.49,29.03-3.2-29.78,6.42-.69Z"/>
      <path class="cls-3" d="M248.84,565.78l-17.46-2.75.22-1.4c.5-3.17,1.32-5.92,2.45-8.25,1.09-2.15,2.65-4.07,4.7-5.77,4.62-3.8,9.96-5.22,16.01-4.26,5.91.93,10.64,3.87,14.18,8.8,3.54,4.95,4.83,10.43,3.89,16.43-.97,6.13-3.93,10.99-8.89,14.58-4.96,3.61-10.52,4.93-16.67,3.96-3.3-.52-6.28-1.68-8.93-3.48-2.52-1.78-4.87-4.4-7.04-7.84l5.23-3.63c2.74,5.16,6.6,8.14,11.58,8.92,4.47.71,8.46-.24,11.98-2.85,3.51-2.55,5.62-6.11,6.34-10.67.74-4.71-.33-8.85-3.23-12.43-2.71-3.33-5.91-5.28-9.59-5.86-3.14-.49-6.12.12-8.96,1.84-2.84,1.74-4.64,4.07-5.4,7l10.54,1.66-.95,5.99Z"/>
      <path class="cls-3" d="M207.18,551.03l-6.83-21.47,7.49,2.49,6.08,20.47,1.1.37,5.51-16.62,6.13,2.03-13.47,40.6-7.18-2.38c-5.36-1.78-8.9-4.07-10.62-6.88-1.89-3.12-2.22-6.52-1-10.2.95-2.87,2.6-5.07,4.93-6.59s4.95-2.12,7.84-1.81ZM213.27,558.21l-1.95-.65c-5.8-1.93-9.44-.67-10.91,3.76-1.38,4.15.76,7.17,6.4,9.04l2.18.72,4.28-12.88Z"/>
      <path class="cls-3" d="M186.53,547.63c-2.82,5.32-7.19,8.86-13.11,10.61-5.91,1.76-11.59,1.2-17.04-1.69-5.38-2.85-8.98-7.23-10.79-13.12-1.83-5.9-1.31-11.55,1.55-16.95,2.88-5.43,7.27-9.02,13.16-10.74,5.92-1.74,11.63-1.14,17.15,1.78,4.88,2.59,8.37,6.6,10.46,12.03,2.3,6,1.84,12.03-1.37,18.09ZM180.81,544.51c2.21-4.18,2.63-8.36,1.25-12.54-1.36-4.17-3.87-7.23-7.53-9.16-3.97-2.1-8.04-2.5-12.22-1.21-4.19,1.33-7.35,3.99-9.46,7.97-2.14,4.03-2.58,8.12-1.33,12.27,1.22,4.16,3.81,7.29,7.76,9.38,3.93,2.08,7.98,2.47,12.14,1.17,4.15-1.27,7.27-3.9,9.38-7.88Z"/>
      <path class="cls-3" d="M118.72,531.94l16.06-20.15c2.29-2.87,3.5-5.35,3.62-7.43.13-3.04-1.08-5.57-3.62-7.6-2.56-2.04-5.3-2.65-8.23-1.85-1.96.54-4.11,2.26-6.43,5.18l-16.06,20.15-5.05-4.02,17.16-21.54c2.81-3.52,6.22-5.55,10.23-6.09,4.5-.57,8.54.57,12.14,3.44,3.6,2.87,5.61,6.55,6.04,11.05.38,4.03-.84,7.81-3.65,11.33l-17.16,21.54-5.05-4.02Z"/>
      <path class="cls-3" d="M101.02,482.35l12.53-12.03,4.47,4.66-30.85,29.63-5.07-5.27c-2.48-2.58-4.18-4.71-5.08-6.37-.92-1.68-1.37-3.5-1.34-5.47.03-3.43,1.36-6.42,4-8.95,2.82-2.71,5.97-3.92,9.44-3.61,3.47.31,6.74,2.06,9.83,5.27l2.07,2.16ZM96.7,486.5l-1.67-1.74c-4.11-4.28-7.8-4.83-11.09-1.67-3.18,3.06-2.66,6.79,1.58,11.2l1.48,1.54,9.71-9.33Z"/>
    </g>
  </g>
</svg>