<svg width="368" height="368" viewBox="0 0 368 368" fill="none" xmlns="http://www.w3.org/2000/svg">
<g clip-path="url(#clip0_11_187)">
<path d="M184 368C285.62 368 368 285.62 368 184C368 82.3796 285.62 0 184 0C82.3796 0 0 82.3796 0 184C0 285.62 82.3796 368 184 368Z" fill="#009089"/>
<path d="M167.12 286.616C170.632 271.688 175.656 259.224 186.288 249.704C196.928 240.184 212.456 236.32 226.24 241.36C240.024 246.4 251.064 260.928 251.072 276.048C251.08 291.16 238.864 304.92 224.512 304.36C215.272 304 205.384 298.488 197.24 302.6C193.296 304.592 189.448 312.48 185.376 314.912C181.872 317 174.216 317.328 171.984 314.744C167.152 309.152 163.392 302.464 167.12 286.608V286.616Z" fill="#EA5C98"/>
<path d="M170.216 287.44C174.192 270.848 181.256 253.912 197.512 246.032C213.768 238.152 233.144 243.568 242.696 258.944C251.088 272.448 249.088 292.496 233.128 299.52C224.776 303.2 216.416 299.24 207.976 298.168C204.32 297.704 200.632 297.776 197.168 299.16C193.704 300.544 191.632 303.112 189.432 305.896C186.872 309.144 184.736 312.56 180.368 313.216C176.88 313.744 174.632 313.24 172.6 310.408C167.704 303.544 168.456 295.28 170.216 287.44C171.12 283.424 164.936 281.752 164.032 285.784C162.16 294.112 161.288 303.024 165.368 310.856C166.656 313.328 168.552 316.368 170.88 317.968C173.856 320.024 178.056 320.016 181.48 319.48C185.752 318.808 188.808 316.728 191.544 313.456C194.424 310.016 196.736 305.464 201.464 304.504C206.888 303.4 212.68 305.672 217.952 306.696C222.68 307.616 227.416 307.944 232.096 306.632C250.656 301.448 258.288 279.736 251.712 262.776C244.472 244.112 225.192 233 205.472 236.72C181.2 241.296 169.296 263.784 164.024 285.776C163.064 289.784 169.248 291.448 170.208 287.432L170.216 287.44Z" fill="black"/>
<path d="M90 246.176C90.912 217.624 92.296 189.864 100.32 162.448C108.344 135.032 123.912 109.288 146.888 92.3201C169.864 75.3521 200.616 68.0481 227.952 76.3201C255.288 84.5921 277.68 109.648 279.584 138.144C281.488 166.64 260.392 195.832 232.136 200.016C212.648 202.904 192.832 194.752 173.296 197.304C146.496 200.808 124.704 227.056 126.2 254.048C126.968 267.928 131.216 285.864 119.024 292.544C109.664 297.672 97.448 289.896 93.952 279.8C90.464 269.712 89.736 254.264 89.992 246.168L90 246.176Z" fill="#FFE52B"/>
<path d="M93.2 246.192C94.752 197.968 99 146.096 133.328 108.824C148.592 92.2481 168.696 80.6801 191.056 77.1281C212.68 73.6961 235.264 78.8241 252.144 93.0641C267.344 105.88 277.704 125.112 276.384 145.344C275.112 164.784 263.048 183.552 245.632 192.392C223.264 203.744 198.896 191.704 175.456 193.872C156.256 195.648 139.256 207.76 130.048 224.552C125.496 232.856 122.856 242.296 122.928 251.784C123 261.272 125.52 270.448 123.88 279.664C122.088 289.744 112.632 294.008 104.048 287.976C95.304 281.832 94.312 269.592 93.56 259.824C93.208 255.288 93.072 250.736 93.192 246.192C93.304 242.064 86.904 242.04 86.792 246.16C86.32 263.728 87.216 293.56 109.712 297.112C119.208 298.616 127.272 292.2 129.64 283.208C132.152 273.704 129.864 263.68 129.392 254.072C128.32 232.248 142.888 210.832 163.264 203.128C187.856 193.832 213.888 208.864 238.872 201.848C258.768 196.264 274.072 179.248 280.112 159.816C286.456 139.408 281.12 117.56 268.312 100.816C254.88 83.2481 234.728 72.3041 212.776 70.1201C188.552 67.7121 163.568 75.7361 144.264 90.3041C125.512 104.456 111.68 124.136 102.8 145.752C92.504 170.8 89.112 198.032 87.648 224.888C87.264 231.976 87.008 239.064 86.784 246.16C86.648 250.288 93.056 250.304 93.184 246.192H93.2Z" fill="black"/>
<path d="M237.634 144.193C241.682 131.571 233.196 117.566 218.681 112.911C204.166 108.256 189.118 114.715 185.071 127.337C181.023 139.958 189.509 153.964 204.024 158.618C218.539 163.273 233.586 156.814 237.634 144.193Z" fill="white" stroke="black" stroke-width="6" stroke-miterlimit="10"/>
<path d="M225.888 282.968C229.423 282.968 232.288 280.103 232.288 276.568C232.288 273.033 229.423 270.168 225.888 270.168C222.353 270.168 219.488 273.033 219.488 276.568C219.488 280.103 222.353 282.968 225.888 282.968Z" fill="white" stroke="black" stroke-width="4" stroke-miterlimit="10"/>
<path d="M202.352 226.472C205.887 226.472 208.752 223.606 208.752 220.072C208.752 216.537 205.887 213.672 202.352 213.672C198.817 213.672 195.952 216.537 195.952 220.072C195.952 223.606 198.817 226.472 202.352 226.472Z" fill="#4DB4F2" stroke="black" stroke-width="4" stroke-miterlimit="10"/>
<path d="M229.416 225.912C232.951 225.912 235.816 223.047 235.816 219.512C235.816 215.977 232.951 213.112 229.416 213.112C225.881 213.112 223.016 215.977 223.016 219.512C223.016 223.047 225.881 225.912 229.416 225.912Z" fill="#4DB4F2" stroke="black" stroke-width="4" stroke-miterlimit="10"/>
<path d="M253.24 218.632C256.775 218.632 259.64 215.767 259.64 212.232C259.64 208.697 256.775 205.832 253.24 205.832C249.705 205.832 246.84 208.697 246.84 212.232C246.84 215.767 249.705 218.632 253.24 218.632Z" fill="#4DB4F2" stroke="black" stroke-width="4" stroke-miterlimit="10"/>
<path d="M274.584 204.472C278.119 204.472 280.984 201.606 280.984 198.072C280.984 194.537 278.119 191.672 274.584 191.672C271.049 191.672 268.184 194.537 268.184 198.072C268.184 201.606 271.049 204.472 274.584 204.472Z" fill="#4DB4F2" stroke="black" stroke-width="4" stroke-miterlimit="10"/>
<path d="M287.528 185.088C291.063 185.088 293.928 182.222 293.928 178.688C293.928 175.153 291.063 172.288 287.528 172.288C283.993 172.288 281.128 175.153 281.128 178.688C281.128 182.222 283.993 185.088 287.528 185.088Z" fill="#4DB4F2" stroke="black" stroke-width="4" stroke-miterlimit="10"/>
<path d="M297.136 162.968C300.671 162.968 303.536 160.103 303.536 156.568C303.536 153.033 300.671 150.168 297.136 150.168C293.601 150.168 290.736 153.033 290.736 156.568C290.736 160.103 293.601 162.968 297.136 162.968Z" fill="#4DB4F2" stroke="black" stroke-width="4" stroke-miterlimit="10"/>
<path d="M298.376 138.16C301.911 138.16 304.776 135.294 304.776 131.76C304.776 128.225 301.911 125.36 298.376 125.36C294.841 125.36 291.976 128.225 291.976 131.76C291.976 135.294 294.841 138.16 298.376 138.16Z" fill="#4DB4F2" stroke="black" stroke-width="4" stroke-miterlimit="10"/>
<path d="M290.496 112.952C294.031 112.952 296.896 110.086 296.896 106.552C296.896 103.017 294.031 100.152 290.496 100.152C286.961 100.152 284.096 103.017 284.096 106.552C284.096 110.086 286.961 112.952 290.496 112.952Z" fill="#4DB4F2" stroke="black" stroke-width="4" stroke-miterlimit="10"/>
<path d="M278.976 92.3439C282.511 92.3439 285.376 89.4786 285.376 85.9439C285.376 82.4093 282.511 79.5439 278.976 79.5439C275.441 79.5439 272.576 82.4093 272.576 85.9439C272.576 89.4786 275.441 92.3439 278.976 92.3439Z" fill="#4DB4F2" stroke="black" stroke-width="4" stroke-miterlimit="10"/>
<path d="M258.504 72.3439C262.039 72.3439 264.904 69.4786 264.904 65.9439C264.904 62.4093 262.039 59.5439 258.504 59.5439C254.969 59.5439 252.104 62.4093 252.104 65.9439C252.104 69.4786 254.969 72.3439 258.504 72.3439Z" fill="#4DB4F2" stroke="black" stroke-width="4" stroke-miterlimit="10"/>
<path d="M236.064 65.144C239.599 65.144 242.464 62.2786 242.464 58.744C242.464 55.2094 239.599 52.344 236.064 52.344C232.529 52.344 229.664 55.2094 229.664 58.744C229.664 62.2786 232.529 65.144 236.064 65.144Z" fill="#4DB4F2" stroke="black" stroke-width="4" stroke-miterlimit="10"/>
<path d="M209.048 59C212.583 59 215.448 56.1346 215.448 52.6C215.448 49.0653 212.583 46.2 209.048 46.2C205.513 46.2 202.648 49.0653 202.648 52.6C202.648 56.1346 205.513 59 209.048 59Z" fill="#4DB4F2" stroke="black" stroke-width="4" stroke-miterlimit="10"/>
<path d="M183.024 61.5681C186.559 61.5681 189.424 58.7027 189.424 55.1681C189.424 51.6334 186.559 48.7681 183.024 48.7681C179.489 48.7681 176.624 51.6334 176.624 55.1681C176.624 58.7027 179.489 61.5681 183.024 61.5681Z" fill="#4DB4F2" stroke="black" stroke-width="4" stroke-miterlimit="10"/>
<path d="M160.064 67.656C163.599 67.656 166.464 64.7906 166.464 61.256C166.464 57.7213 163.599 54.856 160.064 54.856C156.529 54.856 153.664 57.7213 153.664 61.256C153.664 64.7906 156.529 67.656 160.064 67.656Z" fill="#4DB4F2" stroke="black" stroke-width="4" stroke-miterlimit="10"/>
<path d="M136.456 76.9838C139.991 76.9838 142.856 74.1185 142.856 70.5838C142.856 67.0492 139.991 64.1838 136.456 64.1838C132.921 64.1838 130.056 67.0492 130.056 70.5838C130.056 74.1185 132.921 76.9838 136.456 76.9838Z" fill="#4DB4F2" stroke="black" stroke-width="4" stroke-miterlimit="10"/>
<path d="M117.672 93.6479C121.207 93.6479 124.072 90.7825 124.072 87.2479C124.072 83.7133 121.207 80.8479 117.672 80.8479C114.137 80.8479 111.272 83.7133 111.272 87.2479C111.272 90.7825 114.137 93.6479 117.672 93.6479Z" fill="#4DB4F2" stroke="black" stroke-width="4" stroke-miterlimit="10"/>
<path d="M104.248 114.544C107.783 114.544 110.648 111.679 110.648 108.144C110.648 104.609 107.783 101.744 104.248 101.744C100.713 101.744 97.848 104.609 97.848 108.144C97.848 111.679 100.713 114.544 104.248 114.544Z" fill="#4DB4F2" stroke="black" stroke-width="4" stroke-miterlimit="10"/>
<path d="M90.824 135.44C94.3586 135.44 97.224 132.575 97.224 129.04C97.224 125.505 94.3586 122.64 90.824 122.64C87.2894 122.64 84.424 125.505 84.424 129.04C84.424 132.575 87.2894 135.44 90.824 135.44Z" fill="#4DB4F2" stroke="black" stroke-width="4" stroke-miterlimit="10"/>
<path d="M83.736 157.544C87.2706 157.544 90.136 154.679 90.136 151.144C90.136 147.609 87.2706 144.744 83.736 144.744C80.2014 144.744 77.336 147.609 77.336 151.144C77.336 154.679 80.2014 157.544 83.736 157.544Z" fill="#4DB4F2" stroke="black" stroke-width="4" stroke-miterlimit="10"/>
<path d="M77.408 179.888C80.9426 179.888 83.808 177.023 83.808 173.488C83.808 169.953 80.9426 167.088 77.408 167.088C73.8734 167.088 71.008 169.953 71.008 173.488C71.008 177.023 73.8734 179.888 77.408 179.888Z" fill="#4DB4F2" stroke="black" stroke-width="4" stroke-miterlimit="10"/>
<path d="M75.656 203.696C79.1906 203.696 82.056 200.831 82.056 197.296C82.056 193.761 79.1906 190.896 75.656 190.896C72.1214 190.896 69.256 193.761 69.256 197.296C69.256 200.831 72.1214 203.696 75.656 203.696Z" fill="#4DB4F2" stroke="black" stroke-width="4" stroke-miterlimit="10"/>
<path d="M71.616 226.768C75.1506 226.768 78.016 223.903 78.016 220.368C78.016 216.833 75.1506 213.968 71.616 213.968C68.0814 213.968 65.216 216.833 65.216 220.368C65.216 223.903 68.0814 226.768 71.616 226.768Z" fill="#4DB4F2" stroke="black" stroke-width="4" stroke-miterlimit="10"/>
<path d="M70.616 250.824C74.1506 250.824 77.016 247.959 77.016 244.424C77.016 240.889 74.1506 238.024 70.616 238.024C67.0814 238.024 64.216 240.889 64.216 244.424C64.216 247.959 67.0814 250.824 70.616 250.824Z" fill="#4DB4F2" stroke="black" stroke-width="4" stroke-miterlimit="10"/>
<path d="M69.624 274.872C73.1586 274.872 76.024 272.007 76.024 268.472C76.024 264.937 73.1586 262.072 69.624 262.072C66.0894 262.072 63.224 264.937 63.224 268.472C63.224 272.007 66.0894 274.872 69.624 274.872Z" fill="#4DB4F2" stroke="black" stroke-width="4" stroke-miterlimit="10"/>
<path d="M78.192 301.984C81.7266 301.984 84.592 299.119 84.592 295.584C84.592 292.049 81.7266 289.184 78.192 289.184C74.6574 289.184 71.792 292.049 71.792 295.584C71.792 299.119 74.6574 301.984 78.192 301.984Z" fill="#4DB4F2" stroke="black" stroke-width="4" stroke-miterlimit="10"/>
<path d="M95.608 321.016C99.1426 321.016 102.008 318.15 102.008 314.616C102.008 311.081 99.1426 308.216 95.608 308.216C92.0734 308.216 89.208 311.081 89.208 314.616C89.208 318.15 92.0734 321.016 95.608 321.016Z" fill="#4DB4F2" stroke="black" stroke-width="4" stroke-miterlimit="10"/>
<path d="M121.4 321.8C124.935 321.8 127.8 318.935 127.8 315.4C127.8 311.865 124.935 309 121.4 309C117.865 309 115 311.865 115 315.4C115 318.935 117.865 321.8 121.4 321.8Z" fill="#4DB4F2" stroke="black" stroke-width="4" stroke-miterlimit="10"/>
<path d="M140.456 304.312C143.991 304.312 146.856 301.447 146.856 297.912C146.856 294.377 143.991 291.512 140.456 291.512C136.921 291.512 134.056 294.377 134.056 297.912C134.056 301.447 136.921 304.312 140.456 304.312Z" fill="#4DB4F2" stroke="black" stroke-width="4" stroke-miterlimit="10"/>
<path d="M148.272 279.936C151.807 279.936 154.672 277.071 154.672 273.536C154.672 270.001 151.807 267.136 148.272 267.136C144.737 267.136 141.872 270.001 141.872 273.536C141.872 277.071 144.737 279.936 148.272 279.936Z" fill="#4DB4F2" stroke="black" stroke-width="4" stroke-miterlimit="10"/>
<path d="M148.536 258.16C152.071 258.16 154.936 255.294 154.936 251.76C154.936 248.225 152.071 245.36 148.536 245.36C145.001 245.36 142.136 248.225 142.136 251.76C142.136 255.294 145.001 258.16 148.536 258.16Z" fill="#4DB4F2" stroke="black" stroke-width="4" stroke-miterlimit="10"/>
<path d="M155.624 236.064C159.159 236.064 162.024 233.199 162.024 229.664C162.024 226.129 159.159 223.264 155.624 223.264C152.089 223.264 149.224 226.129 149.224 229.664C149.224 233.199 152.089 236.064 155.624 236.064Z" fill="#4DB4F2" stroke="black" stroke-width="4" stroke-miterlimit="10"/>
<path d="M176.808 225C180.343 225 183.208 222.135 183.208 218.6C183.208 215.065 180.343 212.2 176.808 212.2C173.273 212.2 170.408 215.065 170.408 218.6C170.408 222.135 173.273 225 176.808 225Z" fill="#4DB4F2" stroke="black" stroke-width="4" stroke-miterlimit="10"/>
</g>
<defs>
<clipPath id="clip0_11_187">
<rect width="368" height="368" fill="white"/>
</clipPath>
</defs>
</svg>
