<?xml version="1.0" encoding="UTF-8"?>
<svg id="Layer_2" data-name="Layer 2" xmlns="http://www.w3.org/2000/svg" viewBox="0 0 497.65 230.62">
  <defs>
    <style>
      .cls-1, .cls-2 {
        fill: #fff;
      }

      .cls-2 {
        stroke: #231f20;
        stroke-width: 1.11px;
      }

      .cls-3 {
        fill: #fff100;
      }
    </style>
  </defs>
  <g id="Layer_1-2" data-name="Layer 1">
    <rect y="48.61" width="497.65" height="145.78"/>
    <path class="cls-3" d="M79.26,71.14h11.27l43.17,100.46h-11l-14.53-33.8h-46.7l-14.66,33.8h-10.45l42.9-100.46ZM65.28,128.71h38.96l-19.28-46.16-19.69,46.16Z"/>
    <path class="cls-3" d="M321.52,71.14h10.05v100.46h-10.05v-100.46Z"/>
    <path class="cls-3" d="M384.85,71.14h29.32c12.35,0,24.57,2.99,32.72,8.28,17.65,11,22.81,30.14,22.81,42.22,0,9.37-3.67,29.46-22.81,41.68-8.15,5.29-20.36,8.28-32.72,8.28h-29.32v-100.46ZM394.89,162.51h14.53c9.1,0,22.94,0,34.48-8.15,6.11-5.16,15.75-15.61,15.75-33.12,0-13.3-6.65-25.66-17.11-33.26-8.96-5.84-18.33-7.74-33.12-7.74h-14.53v82.27Z"/>
    <path class="cls-1" d="M11.47,216.34l3.06,7.17h-5.84l2.78-7.17ZM14.14,211.91h-5.48l-7.65,18.46h5.01l1.42-3.66h8.48l1.56,3.66h5.09l-8.43-18.46Z"/>
    <path class="cls-1" d="M49.53,230.37h-3.95l-10.47-11.42v11.42h-4.7v-18.46h4.31l10.13,10.88v-10.88h4.67v18.46Z"/>
    <path class="cls-1" d="M76.51,215.36h-6.84v15.01h-4.81v-15.01h-6.87v-3.45h18.52v3.45Z"/>
    <path class="cls-1" d="M89.84,230.37h-4.78v-18.46h4.78v18.46Z"/>
    <path class="cls-1" d="M130.72,228.78c-2.5,1.29-4.7,1.83-7.45,1.83-6.51,0-11.04-3.85-11.04-9.4,0-3.46,2-6.57,5.31-8.22,1.72-.86,3.78-1.3,6.15-1.3,1.97,0,3.31.22,5.2.89.78.27,1.03.38,1.61.73v4.24c-1.67-1.22-4.2-2-6.48-2-4.06,0-6.87,2.3-6.87,5.6s2.78,5.65,6.73,5.65c1.84,0,3.98-.62,5.7-1.62l.95-.54.19-.11v4.24Z"/>
    <path class="cls-1" d="M156.11,221.29c0,3.25-2.51,5.6-5.97,5.6s-6.02-2.27-6.02-5.63,2.34-5.66,5.97-5.66,6.05,2.22,6.02,5.68ZM160.99,221.18c0-5.36-4.75-9.48-10.88-9.48s-10.88,4.12-10.88,9.48,4.72,9.44,10.8,9.44,10.96-4.08,10.96-9.44Z"/>
    <path class="cls-1" d="M174.75,215.32h1.67c2.51,0,3.46.57,3.46,2.11,0,1.64-.92,2.19-3.57,2.19h-1.56v-4.29ZM169.97,211.92v18.45h4.78v-7.38h2.82c2.43,0,3.29-.16,4.48-.86,1.69-.97,2.72-2.76,2.72-4.73s-1.11-3.81-2.89-4.72c-1.11-.59-2.11-.76-4.15-.76h-7.77Z"/>
    <path class="cls-1" d="M203.87,221.74v8.63h-4.75v-8.63l-7.48-9.83h5.7l4.17,5.8,4.17-5.8h5.67l-7.48,9.83Z"/>
    <path class="cls-1" d="M223.92,230.37h-4.78v-18.46h4.78v18.46Z"/>
    <path class="cls-1" d="M253.01,230.37h-3.95l-10.47-11.42v11.42h-4.7v-18.46h4.31l10.13,10.88v-10.88h4.67v18.46Z"/>
    <path class="cls-1" d="M280.99,217.21l-.31-.13c-2.2-1-4.59-1.54-6.77-1.54-4.25,0-6.91,2.21-6.91,5.78,0,3.19,2.61,5.47,6.25,5.47,1.17,0,2.28-.22,3.39-.65v-2.17h-2.71v-3.44h7.52v7.6c-1.89,1.54-4.92,2.48-8.1,2.48-6.59,0-11.26-3.91-11.26-9.46s4.62-9.45,11.46-9.45c1.64,0,3.39.22,4.89.62.95.24,1.39.4,2.56.89v4Z"/>
    <path class="cls-1" d="M309.24,230.37h-4.78v-18.46h4.78v18.46Z"/>
    <path class="cls-1" d="M338.33,230.37h-3.95l-10.47-11.42v11.42h-4.7v-18.46h4.31l10.13,10.88v-10.88h4.67v18.46Z"/>
    <path class="cls-1" d="M366.21,215.43h2.4c1.98,0,2.7.08,3.68.49,2.06.81,3.21,2.65,3.21,5.16s-1.17,4.4-3.18,5.21c-1,.4-2.09.54-4.18.54h-1.92v-11.4ZM361.43,211.92v18.42l7.37.03c1.7,0,3.26-.16,4.38-.43,4.51-1.08,7.2-4.41,7.2-8.84,0-1.38-.25-2.65-.75-3.73-.83-1.81-2.53-3.48-4.42-4.35-1.06-.51-2.54-.89-3.9-1.03-.61-.05-1.11-.08-2.15-.08h-7.74Z"/>
    <path class="cls-1" d="M403.38,230.37h-13.99v-18.45h13.79v3.44h-9.01v3.76h8.59v3.45h-8.59v4.43h9.21v3.38Z"/>
    <path class="cls-1" d="M425.29,216.93l-.33-.16c-2.28-1.11-4.12-1.62-5.78-1.62s-2.83.59-2.83,1.49c0,.78.97,1.46,3.08,2.19l1.5.54c3.64,1.27,5.23,3.03,5.23,5.81,0,3.26-2.98,5.44-7.42,5.44-1.61,0-3.08-.3-5-1-1.11-.43-1.19-.46-1.7-.78v-3.97c1.39.84,2.11,1.24,3.06,1.59,1.19.49,2.33.7,3.5.7,1.86,0,2.86-.57,2.86-1.68,0-.92-.64-1.43-2.55-2.08l-1.03-.35c-1.47-.51-2.25-.84-3.14-1.32-.72-.38-1.31-.84-1.78-1.35-.78-.86-1.25-2.13-1.25-3.43,0-3.16,2.83-5.25,7.16-5.25,2.11,0,4,.41,6.42,1.44v3.79Z"/>
    <path class="cls-1" d="M439.83,230.37h-4.78v-18.46h4.78v18.46Z"/>
    <path class="cls-1" d="M467.87,217.21l-.31-.13c-2.2-1-4.59-1.54-6.77-1.54-4.25,0-6.91,2.21-6.91,5.78,0,3.19,2.61,5.47,6.25,5.47,1.17,0,2.28-.22,3.39-.65v-2.17h-2.71v-3.44h7.52v7.6c-1.89,1.54-4.92,2.48-8.1,2.48-6.59,0-11.26-3.91-11.26-9.46s4.62-9.45,11.46-9.45c1.64,0,3.39.22,4.89.62.95.24,1.39.4,2.56.89v4Z"/>
    <path class="cls-1" d="M497.09,230.37h-3.95l-10.47-11.42v11.42h-4.7v-18.46h4.31l10.13,10.88v-10.88h4.67v18.46Z"/>
    <path class="cls-1" d="M18.71,8.16l5.25,12.52h-10.02l4.77-12.52ZM23.29.42h-9.4L.77,32.7h8.59l2.43-6.4h14.55l2.67,6.4h8.73L23.29.42Z"/>
    <path class="cls-1" d="M119.42,32.7h-8.21V12.96h-.1l-8.63,10.41h-1.19l-8.63-10.41h-.1v19.73h-8.21V.42h7.21l10.3,12.26L112.3.42h7.11v32.27Z"/>
    <path class="cls-1" d="M165.52,32.7h-24.01V.42h23.68v5.98h-15.46v6.61h14.75v6.05h-14.75v7.73h15.8v5.91Z"/>
    <path class="cls-1" d="M221.54,32.7h-8.21V12.96h-.1l-8.63,10.41h-1.19l-8.63-10.41h-.1v19.73h-8.21V.42h7.21l10.3,12.26L214.43.42h7.12v32.27Z"/>
    <path class="cls-1" d="M251.79,6.19h3.21c3.79,0,5.37,1.05,5.37,3.53s-1.53,3.58-5.51,3.58h-3.07v-7.11ZM243.56.42v32.23l14.91.05c2.86,0,4.58-.24,6.11-.76,4.06-1.37,6.4-4.58,6.4-8.61s-2.24-6.91-6.87-8.33c2.75-1.33,4.42-3.8,4.42-6.52,0-3.38-2.53-6.4-6.2-7.44-1.81-.52-2.91-.61-6.36-.61h-12.4ZM251.79,19.12h3.64c5.47,0,7.19.89,7.19,3.84s-1.72,3.84-6.83,3.84h-4.01v-7.67Z"/>
    <path class="cls-1" d="M315.75,32.7h-24.01V.42h23.68v5.98h-15.46v6.61h14.75v6.05h-14.75v7.73h15.8v5.91Z"/>
    <path class="cls-1" d="M344.91,6.26h4.11c3.01,0,4.54,1.24,4.54,3.73,0,2.1-1.48,3.58-3.63,3.63l-1,.05-.62.05h-3.39v-7.45ZM336.7.42v32.27h8.21v-13.15h1.2c1.43,0,1.63,0,2.34.19,1.53.43,3.11,2.22,4.35,5.01l1.24,2.74.95,2.08.62,1.47.62,1.32.19.33h8.92l-.24-.52-.86-1.8-1-2.18-.86-1.8-1.29-2.74c-1.53-3.36-2.96-5.2-4.67-6.04,1.43-.66,1.95-.99,2.81-1.69,1.76-1.55,2.76-3.84,2.76-6.23,0-3.06-1.67-6.03-4.24-7.68-2.1-1.27-3.81-1.6-8.55-1.6h-12.52Z"/>
    <path class="cls-1" d="M446.16,16.77c0,5.69-4.3,9.81-10.22,9.81s-10.31-3.98-10.31-9.86,4.01-9.91,10.22-9.91,10.36,3.89,10.31,9.95ZM454.53,16.58c0-9.38-8.13-16.58-18.63-16.58s-18.63,7.2-18.63,16.58,8.08,16.53,18.49,16.53,18.78-7.14,18.78-16.53Z"/>
    <path class="cls-1" d="M490.84,6.53h-14.22v6.83h14.22v6.1h-14.22v13.23h-8.21V.43h22.43v6.1Z"/>
    <path class="cls-2" d="M222.62,75.12c26.43,0,48.01,21.06,48.01,47.07s-21.58,47.4-48.01,47.4-48.1-21.24-48.1-47.4,21.48-47.07,48.1-47.07ZM242.31,131.4c-2.39,9.78-10.78,14.49-20.16,14.49-11.88,0-21.46-8.77-21.46-23.24s10.05-23.86,22.24-23.86c8.13,0,15.18,4.01,19.07,13.99l8.84-3.43c-2.91-8.74-10.6-18.87-27.6-18.87-19.08,0-33.09,12.15-33.09,31.85s14.17,32.46,32.46,32.46c14.23,0,25.14-8.64,28.22-19.97l-8.53-3.43ZM222.62,65.7c-31.96,0-57.82,25.25-57.82,56.49s25.86,56.82,57.82,56.82,57.48-25.44,57.48-56.82-25.73-56.49-57.48-56.49Z"/>
    <path class="cls-3" d="M474.33,63.9c2.11,0,3.96.78,5.43,2.28,1.42,1.46,2.15,3.29,2.15,5.47,0,1.95-.8,3.86-2.22,5.24-1.5,1.43-3.4,2.23-5.38,2.23s-3.94-.83-5.4-2.31c-1.43-1.43-2.18-3.31-2.18-5.31s.83-3.96,2.31-5.44c1.43-1.43,3.24-2.15,5.3-2.15ZM474.3,62.4c-3.29,0-6.13,1.63-7.76,4.38-.9,1.53-1.32,3.12-1.32,4.74,0,2.35.9,4.61,2.6,6.34,1.76,1.78,4.04,2.75,6.48,2.75s4.66-.92,6.43-2.65c1.72-1.68,2.67-3.94,2.67-6.44s-.9-4.69-2.57-6.4c-1.75-1.78-4.03-2.73-6.53-2.73ZM470.54,66.28v10.11h2.46v-4.14h1.2l1.93,4.14h2.73l-2.25-4.51c1.38-.35,2.2-1.35,2.2-2.68,0-1.93-1.43-2.91-4.31-2.91h-3.97ZM473,67.84h1.08c1.48,0,2.21.45,2.21,1.51s-.68,1.43-2.08,1.43h-1.2v-2.94Z"/>
  </g>
</svg>