<?xml version="1.0" encoding="UTF-8"?><svg id="Logo" xmlns="http://www.w3.org/2000/svg" viewBox="0 0 103.81 28.35"><defs><style>.cls-1{fill:#fff;}</style></defs><path class="cls-1" d="M4.65,23.89c0,1.94.65,3.65,2.74,3.65,2.32,0,4.57-2.63,4.57-5.06v-4.29c0-2.55-1.56-5.91-4.5-5.91-2.51,0-2.82,2.11-2.82,4.42v7.2h0ZM11.96,24.99h-.08c-.91,2.15-2.7,3.36-5.1,3.36-2.02,0-3.05-.77-4.5-2.1-1.52-1.42-2.29-4.13-2.29-6.24,0-4.01,3.31-8.55,7.28-8.55,2.48,0,4.15,1.54,4.61,3.44h.08V0l4.11.08v26.97h4.21v1.02h-8.32v-3.08h0Z"/><path class="cls-1" d="M33.78,16.04c0-1.98-.88-3.77-2.9-3.77-2.4,0-4.3,2.31-4.49,4.82v5.67c0,2.51,2.13,4.78,4.46,4.78,2.17,0,2.93-1.74,2.93-3.81v-7.7h0ZM22.28,1.11h-4.21V.1l8.33-.02v14.37c.99-1.78,2.59-3,4.53-3,4.3,0,7.35,4.29,7.35,8.63s-2.97,8.26-7.24,8.26c-1.87,0-3.66-1.17-4.65-2.79v2.51h-4.11V1.11h0Z"/><path class="cls-1" d="M49.36,19.64c-2.36,0-5.52.33-5.52,3.61,0,1.78.69,3.12,2.47,3.12,1.34,0,2.33-1.09,2.78-2.39.23-.61.27-1.34.27-2.1v-2.23h0ZM49.36,13.73c0-1.05-1.87-1.46-2.51-1.46-1.45,0-3.24.77-2.67,1.54.23.32.53,1.17.53,1.95,0,1.05-.95,1.78-1.83,1.78-1.06,0-1.98-.61-1.98-1.9,0-3.08,3.73-4.17,6.05-4.17,1.64,0,3.39.28,4.88,1.09,1.06.57,1.41,1.21,1.41,2.47v10.77c0,.53.46.77.91.77s1.03-.61,1.33-.93l.46.57c-.99,1.3-2.02,2.15-3.62,2.15s-2.75-1.09-2.97-2.88c-1.38,1.78-3.43,2.88-5.56,2.88-2.29,0-3.96-1.33-3.96-3.93,0-4.82,6.09-5.83,9.52-5.63v-5.06h0Z"/><path class="cls-1" d="M68.5,16.09h.93l1.93,5h-.94l-.47-1.32h-2l-.47,1.32h-.9l1.92-5ZM68.2,19.1h1.53l-.75-2.15h-.02l-.76,2.15Z"/><path class="cls-1" d="M72.35,19.93c.04.46.39.63.82.63.3,0,.83-.06.81-.48-.02-.42-.6-.47-1.18-.6-.59-.13-1.16-.34-1.16-1.07,0-.79.85-1.04,1.51-1.04.74,0,1.41.31,1.51,1.11h-.83c-.07-.38-.39-.48-.74-.48-.23,0-.66.06-.66.37,0,.39.59.45,1.18.58.58.13,1.17.34,1.17,1.06,0,.86-.87,1.18-1.62,1.18-.91,0-1.59-.41-1.6-1.26h.8Z"/><path class="cls-1" d="M76.07,19.93c.04.46.39.63.82.63.3,0,.83-.06.81-.48-.02-.42-.6-.47-1.18-.6-.59-.13-1.16-.34-1.16-1.07,0-.79.85-1.04,1.51-1.04.74,0,1.41.31,1.51,1.11h-.83c-.07-.38-.39-.48-.74-.48-.23,0-.66.06-.66.37,0,.39.59.45,1.18.58.58.13,1.17.34,1.17,1.06,0,.86-.87,1.18-1.62,1.18-.91,0-1.59-.41-1.6-1.26h.8Z"/><path class="cls-1" d="M78.96,19.27c0-1.11.67-1.9,1.83-1.9s1.83.8,1.83,1.9-.67,1.91-1.83,1.91-1.83-.8-1.83-1.91ZM81.82,19.27c0-.62-.32-1.27-1.03-1.27s-1.03.65-1.03,1.27.31,1.28,1.03,1.28,1.03-.65,1.03-1.28Z"/><path class="cls-1" d="M85.77,18.68c-.06-.44-.39-.68-.83-.68-.41,0-.99.22-.99,1.32,0,.6.27,1.24.96,1.24.46,0,.78-.31.86-.83h.8c-.15.94-.73,1.46-1.66,1.46-1.13,0-1.76-.8-1.76-1.87s.6-1.95,1.79-1.95c.84,0,1.55.42,1.63,1.31h-.8Z"/><path class="cls-1" d="M87.26,16.09h.8v.76h-.8v-.76ZM87.26,17.47h.8v3.62h-.8v-3.62Z"/><path class="cls-1" d="M91.83,20.28c0,.2.04.27.19.27.05,0,.11,0,.2-.01v.55c-.12.04-.37.09-.5.09-.32,0-.55-.11-.62-.44-.32.31-.83.44-1.25.44-.65,0-1.24-.35-1.24-1.06,0-.9.72-1.05,1.39-1.13.57-.11,1.09-.04,1.09-.51,0-.41-.43-.49-.75-.49-.45,0-.76.18-.8.57h-.8c.06-.93.85-1.2,1.65-1.2.71,0,1.45.29,1.45,1.05v1.86ZM91.03,19.27c-.25.16-.63.15-.98.22-.34.06-.65.18-.65.6,0,.36.46.46.74.46.35,0,.9-.18.9-.69v-.6Z"/><path class="cls-1" d="M92.39,17.47h.6v-1.09h.8v1.09h.72v.6h-.72v1.93c0,.33.03.5.38.5.11,0,.22,0,.34-.03v.62c-.18.01-.34.04-.52.04-.83,0-.99-.32-1-.92v-2.14h-.6v-.6Z"/><path class="cls-1" d="M95.14,16.09h.8v.76h-.8v-.76ZM95.14,17.47h.8v3.62h-.8v-3.62Z"/><path class="cls-1" d="M96.45,19.27c0-1.11.67-1.9,1.83-1.9s1.83.8,1.83,1.9-.67,1.91-1.83,1.91-1.83-.8-1.83-1.91ZM99.31,19.27c0-.62-.32-1.27-1.03-1.27s-1.03.65-1.03,1.27.31,1.28,1.03,1.28,1.03-.65,1.03-1.28Z"/><path class="cls-1" d="M100.63,17.47h.76v.53h.01c.24-.38.65-.63,1.13-.63.78,0,1.28.42,1.28,1.23v2.49h-.8v-2.28c-.01-.57-.24-.81-.71-.81-.53,0-.88.42-.88.95v2.14h-.8v-3.62Z"/><path class="cls-1" d="M67.15,23.09h1.23l1.38,3.92h.01l1.34-3.92h1.22v5h-.83v-3.86h-.01l-1.39,3.86h-.72l-1.39-3.86h-.01v3.86h-.83v-5Z"/><path class="cls-1" d="M73.72,26.49c0,.57.31,1.07.97,1.07.46,0,.74-.2.88-.6h.76c-.17.79-.85,1.23-1.64,1.23-1.13,0-1.77-.79-1.77-1.9,0-1.03.67-1.91,1.75-1.91,1.14,0,1.84,1.03,1.71,2.12h-2.66ZM75.58,25.96c-.03-.5-.37-.96-.91-.96s-.93.42-.95.96h1.86Z"/><path class="cls-1" d="M77.02,24.47h.76v.5h.02c.24-.36.54-.6,1.11-.6.44,0,.85.19,1.02.6.27-.37.61-.6,1.13-.6.76,0,1.21.34,1.21,1.22v2.5h-.8v-2.12c0-.57-.03-.97-.66-.97-.54,0-.77.36-.77.97v2.12h-.8v-2.33c0-.5-.15-.76-.64-.76-.41,0-.79.34-.79.94v2.15h-.8v-3.62Z"/><path class="cls-1" d="M83,23.09h.8v1.85h.01c.22-.35.67-.57,1.08-.57,1.14,0,1.7.87,1.7,1.93,0,.97-.49,1.89-1.56,1.89-.49,0-1.02-.12-1.25-.59h-.01v.5h-.76v-5ZM84.79,25c-.67,0-1.02.51-1.02,1.28,0,.73.37,1.27,1.02,1.27.73,0,1-.64,1-1.27s-.34-1.28-1-1.28Z"/><path class="cls-1" d="M87.95,26.49c0,.57.31,1.07.97,1.07.46,0,.74-.2.88-.6h.76c-.17.79-.85,1.23-1.64,1.23-1.13,0-1.77-.79-1.77-1.9,0-1.03.67-1.91,1.75-1.91,1.14,0,1.84,1.03,1.71,2.12h-2.66ZM89.81,25.96c-.03-.5-.37-.96-.91-.96s-.93.42-.95.96h1.86Z"/><path class="cls-1" d="M91.19,24.47h.75v.7h.01c.09-.38.57-.8,1.06-.8.18,0,.23.01.3.02v.77c-.11-.01-.23-.04-.34-.04-.55,0-.98.44-.98,1.24v1.72h-.8v-3.62Z"/></svg>